<?xml version="1.0" encoding="UTF-8" standalone="no"?>
<!-- Created with Inkscape (http://www.inkscape.org/) -->

<svg
   width="210mm"
   height="297mm"
   viewBox="0 0 210 297"
   version="1.1"
   id="svg140"
   inkscape:version="1.2 (dc2aedaf03, 2022-05-15)"
   sodipodi:docname="Bullets.svg"
   inkscape:export-filename="C:\Users\tollm\Documents\MicahToll.github.io\KirbyBulletHell\assets\bullets\kirby_bullet.png"
   inkscape:export-xdpi="96"
   inkscape:export-ydpi="96"
   xmlns:inkscape="http://www.inkscape.org/namespaces/inkscape"
   xmlns:sodipodi="http://sodipodi.sourceforge.net/DTD/sodipodi-0.dtd"
   xmlns:xlink="http://www.w3.org/1999/xlink"
   xmlns="http://www.w3.org/2000/svg"
   xmlns:svg="http://www.w3.org/2000/svg"
   xmlns:rdf="http://www.w3.org/1999/02/22-rdf-syntax-ns#"
   xmlns:cc="http://creativecommons.org/ns#"
   xmlns:dc="http://purl.org/dc/elements/1.1/">
  <defs
     id="defs134" />
  <sodipodi:namedview
     id="base"
     pagecolor="#ffffff"
     bordercolor="#666666"
     borderopacity="1.0"
     inkscape:pageopacity="0.0"
     inkscape:pageshadow="2"
     inkscape:zoom="1.4"
     inkscape:cx="476.42857"
     inkscape:cy="902.14286"
     inkscape:document-units="mm"
     inkscape:current-layer="layer1"
     showgrid="false"
     inkscape:window-width="1920"
     inkscape:window-height="986"
     inkscape:window-x="-11"
     inkscape:window-y="471"
     inkscape:window-maximized="1"
     inkscape:showpageshadow="2"
     inkscape:pagecheckerboard="0"
     inkscape:deskcolor="#d1d1d1" />
  <metadata
     id="metadata137">
    <rdf:RDF>
      <cc:Work
         rdf:about="">
        <dc:format>image/svg+xml</dc:format>
        <dc:type
           rdf:resource="http://purl.org/dc/dcmitype/StillImage" />
        <dc:title />
      </cc:Work>
    </rdf:RDF>
  </metadata>
  <g
     inkscape:label="Layer 1"
     inkscape:groupmode="layer"
     id="layer1">
    <circle
       style="fill:#00ffff;fill-opacity:1;stroke-width:0.80000001;stroke-miterlimit:4;stroke-dasharray:none"
       id="path144"
       cx="26.647322"
       cy="22.778275"
       r="13.229166" />
    <use
       id="use288"
       inkscape:spray-origin="#path144"
       xlink:href="#path144"
       x="0"
       y="0"
       width="100%"
       height="100%"
       transform="translate(22.269009,-4.3811096)" />
    <use
       id="use290"
       inkscape:spray-origin="#path144"
       xlink:href="#path144"
       x="0"
       y="0"
       width="100%"
       height="100%"
       transform="translate(17.257956,1.736676)" />
    <use
       id="use292"
       inkscape:spray-origin="#path144"
       xlink:href="#path144"
       x="0"
       y="0"
       width="100%"
       height="100%"
       transform="translate(22.800591,-5.3072957)" />
    <use
       id="use294"
       inkscape:spray-origin="#path144"
       xlink:href="#path144"
       x="0"
       y="0"
       width="100%"
       height="100%"
       transform="translate(24.205856,5.3270217)" />
    <use
       id="use296"
       inkscape:spray-origin="#path144"
       xlink:href="#path144"
       x="0"
       y="0"
       width="100%"
       height="100%"
       transform="translate(43.826426,0.21283683)" />
    <use
       id="use298"
       inkscape:spray-origin="#path144"
       xlink:href="#path144"
       x="0"
       y="0"
       width="100%"
       height="100%"
       transform="translate(50.505433,-1.8077371)" />
    <use
       id="use300"
       inkscape:spray-origin="#path144"
       xlink:href="#path144"
       x="0"
       y="0"
       width="100%"
       height="100%"
       transform="translate(53.569551,-6.7450868)" />
    <use
       id="use302"
       inkscape:spray-origin="#path144"
       xlink:href="#path144"
       x="0"
       y="0"
       width="100%"
       height="100%"
       transform="translate(55.178947,-2.7918627)" />
    <use
       id="use304"
       inkscape:spray-origin="#path144"
       xlink:href="#path144"
       x="0"
       y="0"
       width="100%"
       height="100%"
       transform="translate(51.8891,-8.1780948)" />
    <use
       id="use306"
       inkscape:spray-origin="#path144"
       xlink:href="#path144"
       x="0"
       y="0"
       width="100%"
       height="100%"
       transform="translate(54.254323,1.8377969)" />
    <use
       id="use308"
       inkscape:spray-origin="#path144"
       xlink:href="#path144"
       x="0"
       y="0"
       width="100%"
       height="100%"
       transform="translate(55.551699,-0.62955152)" />
    <use
       id="use310"
       inkscape:spray-origin="#path144"
       xlink:href="#path144"
       x="0"
       y="0"
       width="100%"
       height="100%"
       transform="translate(61.656146,-4.3489943)" />
    <use
       id="use312"
       inkscape:spray-origin="#path144"
       xlink:href="#path144"
       x="0"
       y="0"
       width="100%"
       height="100%"
       transform="translate(59.389675,-1.2094231)" />
    <use
       id="use314"
       inkscape:spray-origin="#path144"
       xlink:href="#path144"
       x="0"
       y="0"
       width="100%"
       height="100%"
       transform="translate(58.389619,0.63894186)" />
    <use
       id="use316"
       inkscape:spray-origin="#path144"
       xlink:href="#path144"
       x="0"
       y="0"
       width="100%"
       height="100%"
       transform="translate(65.65993,-1.6494318)" />
    <use
       id="use318"
       inkscape:spray-origin="#path144"
       xlink:href="#path144"
       x="0"
       y="0"
       width="100%"
       height="100%"
       transform="translate(61.582714,6.2056934)" />
    <use
       id="use320"
       inkscape:spray-origin="#path144"
       xlink:href="#path144"
       x="0"
       y="0"
       width="100%"
       height="100%"
       transform="translate(67.743731,1.1091653)" />
    <use
       id="use322"
       inkscape:spray-origin="#path144"
       xlink:href="#path144"
       x="0"
       y="0"
       width="100%"
       height="100%"
       transform="translate(64.095468,3.9141917)" />
    <use
       id="use324"
       inkscape:spray-origin="#path144"
       xlink:href="#path144"
       x="0"
       y="0"
       width="100%"
       height="100%"
       transform="translate(71.768562,4.1802424)" />
    <use
       id="use326"
       inkscape:spray-origin="#path144"
       xlink:href="#path144"
       x="0"
       y="0"
       width="100%"
       height="100%"
       transform="translate(68.601353,7.5842877)" />
    <use
       id="use328"
       inkscape:spray-origin="#path144"
       xlink:href="#path144"
       x="0"
       y="0"
       width="100%"
       height="100%"
       transform="translate(67.424665,13.292914)" />
    <use
       id="use330"
       inkscape:spray-origin="#path144"
       xlink:href="#path144"
       x="0"
       y="0"
       width="100%"
       height="100%"
       transform="translate(68.401424,10.356345)" />
    <use
       id="use332"
       inkscape:spray-origin="#path144"
       xlink:href="#path144"
       x="0"
       y="0"
       width="100%"
       height="100%"
       transform="translate(73.044668,12.292093)" />
    <use
       id="use334"
       inkscape:spray-origin="#path144"
       xlink:href="#path144"
       x="0"
       y="0"
       width="100%"
       height="100%"
       transform="translate(66.645048,17.70718)" />
    <use
       id="use336"
       inkscape:spray-origin="#path144"
       xlink:href="#path144"
       x="0"
       y="0"
       width="100%"
       height="100%"
       transform="translate(74.010228,19.575057)" />
    <use
       id="use338"
       inkscape:spray-origin="#path144"
       xlink:href="#path144"
       x="0"
       y="0"
       width="100%"
       height="100%"
       transform="translate(77.466472,21.756328)" />
    <use
       id="use340"
       inkscape:spray-origin="#path144"
       xlink:href="#path144"
       x="0"
       y="0"
       width="100%"
       height="100%"
       transform="translate(77.470358,17.188968)" />
    <use
       id="use342"
       inkscape:spray-origin="#path144"
       xlink:href="#path144"
       x="0"
       y="0"
       width="100%"
       height="100%"
       transform="translate(75.682321,19.601575)" />
    <use
       id="use344"
       inkscape:spray-origin="#path144"
       xlink:href="#path144"
       x="0"
       y="0"
       width="100%"
       height="100%"
       transform="translate(85.697726,16.360937)" />
    <use
       id="use346"
       inkscape:spray-origin="#path144"
       xlink:href="#path144"
       x="0"
       y="0"
       width="100%"
       height="100%"
       transform="translate(86.039443,13.743892)" />
    <use
       id="use348"
       inkscape:spray-origin="#path144"
       xlink:href="#path144"
       x="0"
       y="0"
       width="100%"
       height="100%"
       transform="translate(84.19565,9.2037134)" />
    <use
       id="use350"
       inkscape:spray-origin="#path144"
       xlink:href="#path144"
       x="0"
       y="0"
       width="100%"
       height="100%"
       transform="translate(100.83126,4.8089855)" />
    <use
       id="use352"
       inkscape:spray-origin="#path144"
       xlink:href="#path144"
       x="0"
       y="0"
       width="100%"
       height="100%"
       transform="translate(112.69676,1.6611036)" />
    <use
       id="use354"
       inkscape:spray-origin="#path144"
       xlink:href="#path144"
       x="0"
       y="0"
       width="100%"
       height="100%"
       transform="translate(115.73681,1.1090074)" />
    <use
       id="use356"
       inkscape:spray-origin="#path144"
       xlink:href="#path144"
       x="0"
       y="0"
       width="100%"
       height="100%"
       transform="translate(128.27501,-4.9534595)" />
    <use
       id="use358"
       inkscape:spray-origin="#path144"
       xlink:href="#path144"
       x="0"
       y="0"
       width="100%"
       height="100%"
       transform="translate(128.08827,-7.1584096)" />
    <use
       id="use360"
       inkscape:spray-origin="#path144"
       xlink:href="#path144"
       x="0"
       y="0"
       width="100%"
       height="100%"
       transform="translate(126.30722,-4.1158062)" />
    <use
       id="use362"
       inkscape:spray-origin="#path144"
       xlink:href="#path144"
       x="0"
       y="0"
       width="100%"
       height="100%"
       transform="translate(129.05614,-2.0008661)" />
    <use
       id="use364"
       inkscape:spray-origin="#path144"
       xlink:href="#path144"
       x="0"
       y="0"
       width="100%"
       height="100%"
       transform="translate(129.68358,-7.2700191)" />
    <use
       id="use366"
       inkscape:spray-origin="#path144"
       xlink:href="#path144"
       x="0"
       y="0"
       width="100%"
       height="100%"
       transform="translate(120.73403,-0.63388329)" />
    <use
       id="use368"
       inkscape:spray-origin="#path144"
       xlink:href="#path144"
       x="0"
       y="0"
       width="100%"
       height="100%"
       transform="translate(127.83727,0.54679487)" />
    <use
       id="use370"
       inkscape:spray-origin="#path144"
       xlink:href="#path144"
       x="0"
       y="0"
       width="100%"
       height="100%"
       transform="translate(134.03198,0.18103653)" />
    <use
       id="use372"
       inkscape:spray-origin="#path144"
       xlink:href="#path144"
       x="0"
       y="0"
       width="100%"
       height="100%"
       transform="translate(126.45638,4.4791925)" />
    <use
       id="use374"
       inkscape:spray-origin="#path144"
       xlink:href="#path144"
       x="0"
       y="0"
       width="100%"
       height="100%"
       transform="translate(127.76361,-0.8977317)" />
    <use
       id="use376"
       inkscape:spray-origin="#path144"
       xlink:href="#path144"
       x="0"
       y="0"
       width="100%"
       height="100%"
       transform="translate(132.85831,9.0378311)" />
    <use
       id="use378"
       inkscape:spray-origin="#path144"
       xlink:href="#path144"
       x="0"
       y="0"
       width="100%"
       height="100%"
       transform="translate(138.60479,15.43201)" />
    <use
       id="use380"
       inkscape:spray-origin="#path144"
       xlink:href="#path144"
       x="0"
       y="0"
       width="100%"
       height="100%"
       transform="translate(146.09149,11.976826)" />
    <use
       id="use382"
       inkscape:spray-origin="#path144"
       xlink:href="#path144"
       x="0"
       y="0"
       width="100%"
       height="100%"
       transform="translate(139.89893,16.689615)" />
    <use
       id="use384"
       inkscape:spray-origin="#path144"
       xlink:href="#path144"
       x="0"
       y="0"
       width="100%"
       height="100%"
       transform="translate(140.99179,12.915908)" />
    <use
       id="use386"
       inkscape:spray-origin="#path144"
       xlink:href="#path144"
       x="0"
       y="0"
       width="100%"
       height="100%"
       transform="translate(143.44549,9.7141941)" />
    <use
       id="use388"
       inkscape:spray-origin="#path144"
       xlink:href="#path144"
       x="0"
       y="0"
       width="100%"
       height="100%"
       transform="translate(146.34362,13.63615)" />
    <use
       id="use390"
       inkscape:spray-origin="#path144"
       xlink:href="#path144"
       x="0"
       y="0"
       width="100%"
       height="100%"
       transform="translate(141.22422,12.931441)" />
    <use
       id="use392"
       inkscape:spray-origin="#path144"
       xlink:href="#path144"
       x="0"
       y="0"
       width="100%"
       height="100%"
       transform="translate(148.32547,16.597891)" />
    <use
       id="use394"
       inkscape:spray-origin="#path144"
       xlink:href="#path144"
       x="0"
       y="0"
       width="100%"
       height="100%"
       transform="translate(146.56228,15.21501)" />
    <use
       id="use396"
       inkscape:spray-origin="#path144"
       xlink:href="#path144"
       x="0"
       y="0"
       width="100%"
       height="100%"
       transform="translate(154.05848,12.492878)" />
    <use
       id="use398"
       inkscape:spray-origin="#path144"
       xlink:href="#path144"
       x="0"
       y="0"
       width="100%"
       height="100%"
       transform="translate(164.71727,11.570368)" />
    <use
       id="use400"
       inkscape:spray-origin="#path144"
       xlink:href="#path144"
       x="0"
       y="0"
       width="100%"
       height="100%"
       transform="translate(167.48727,8.0542033)" />
    <use
       id="use402"
       inkscape:spray-origin="#path144"
       xlink:href="#path144"
       x="0"
       y="0"
       width="100%"
       height="100%"
       transform="translate(172.75618,6.7372086)" />
    <use
       id="use404"
       inkscape:spray-origin="#path144"
       xlink:href="#path144"
       x="0"
       y="0"
       width="100%"
       height="100%"
       transform="translate(179.58947,3.422139)" />
    <use
       id="use406"
       inkscape:spray-origin="#path144"
       xlink:href="#path144"
       x="0"
       y="0"
       width="100%"
       height="100%"
       transform="translate(173.52514,1.348972)" />
    <use
       id="use408"
       inkscape:spray-origin="#path144"
       xlink:href="#path144"
       x="0"
       y="0"
       width="100%"
       height="100%"
       transform="translate(179.37617,2.9314488)" />
    <use
       id="use410"
       inkscape:spray-origin="#path144"
       xlink:href="#path144"
       x="0"
       y="0"
       width="100%"
       height="100%"
       transform="translate(187.05465,2.6839474)" />
    <use
       id="use412"
       inkscape:spray-origin="#path144"
       xlink:href="#path144"
       x="0"
       y="0"
       width="100%"
       height="100%"
       transform="translate(176.88273,1.6487453)" />
    <use
       id="use414"
       inkscape:spray-origin="#path144"
       xlink:href="#path144"
       x="0"
       y="0"
       width="100%"
       height="100%"
       transform="translate(181.94634,3.684943)" />
    <use
       id="use416"
       inkscape:spray-origin="#path144"
       xlink:href="#path144"
       x="0"
       y="0"
       width="100%"
       height="100%"
       transform="translate(182.89807,4.8666379)" />
    <use
       id="use418"
       inkscape:spray-origin="#path144"
       xlink:href="#path144"
       x="0"
       y="0"
       width="100%"
       height="100%"
       transform="translate(183.11973,1.8114335)" />
    <use
       id="use420"
       inkscape:spray-origin="#path144"
       xlink:href="#path144"
       x="0"
       y="0"
       width="100%"
       height="100%"
       transform="translate(188.66952,8.7314005)" />
    <use
       id="use422"
       inkscape:spray-origin="#path144"
       xlink:href="#path144"
       x="0"
       y="0"
       width="100%"
       height="100%"
       transform="translate(189.56592,2.8203331)" />
    <use
       id="use424"
       inkscape:spray-origin="#path144"
       xlink:href="#path144"
       x="0"
       y="0"
       width="100%"
       height="100%"
       transform="translate(186.09227,1.8551363)" />
    <use
       id="use426"
       inkscape:spray-origin="#path144"
       xlink:href="#path144"
       x="0"
       y="0"
       width="100%"
       height="100%"
       transform="translate(181.29777,9.1799629)" />
    <use
       id="use428"
       inkscape:spray-origin="#path144"
       xlink:href="#path144"
       x="0"
       y="0"
       width="100%"
       height="100%"
       transform="translate(193.68467,9.0326518)" />
    <use
       id="use430"
       inkscape:spray-origin="#path144"
       xlink:href="#path144"
       x="0"
       y="0"
       width="100%"
       height="100%"
       transform="translate(187.56028,9.0159565)" />
    <use
       id="use432"
       inkscape:spray-origin="#path144"
       xlink:href="#path144"
       x="0"
       y="0"
       width="100%"
       height="100%"
       transform="translate(190.25642,1.2843044)" />
    <use
       id="use434"
       inkscape:spray-origin="#path144"
       xlink:href="#path144"
       x="0"
       y="0"
       width="100%"
       height="100%"
       transform="translate(177.94186,2.4727424)" />
    <use
       id="use436"
       inkscape:spray-origin="#path144"
       xlink:href="#path144"
       x="0"
       y="0"
       width="100%"
       height="100%"
       transform="translate(179.91168,-5.4287064)" />
    <use
       id="use438"
       inkscape:spray-origin="#path144"
       xlink:href="#path144"
       x="0"
       y="0"
       width="100%"
       height="100%"
       transform="translate(182.72913,-2.0700133)" />
    <use
       id="use440"
       inkscape:spray-origin="#path144"
       xlink:href="#path144"
       x="0"
       y="0"
       width="100%"
       height="100%"
       transform="translate(172.30196,3.3704142)" />
    <use
       id="use442"
       inkscape:spray-origin="#path144"
       xlink:href="#path144"
       x="0"
       y="0"
       width="100%"
       height="100%"
       transform="translate(173.28237,-3.6466565)" />
    <use
       id="use444"
       inkscape:spray-origin="#path144"
       xlink:href="#path144"
       x="0"
       y="0"
       width="100%"
       height="100%"
       transform="translate(175.87925,4.8163534)" />
    <use
       id="use446"
       inkscape:spray-origin="#path144"
       xlink:href="#path144"
       x="0"
       y="0"
       width="100%"
       height="100%"
       transform="translate(173.70214,-1.6391922)" />
    <use
       id="use448"
       inkscape:spray-origin="#path144"
       xlink:href="#path144"
       x="0"
       y="0"
       width="100%"
       height="100%"
       transform="translate(161.82565,2.5364565)" />
    <use
       id="use450"
       inkscape:spray-origin="#path144"
       xlink:href="#path144"
       x="0"
       y="0"
       width="100%"
       height="100%"
       transform="translate(157.83154,1.8411612)" />
    <use
       id="use452"
       inkscape:spray-origin="#path144"
       xlink:href="#path144"
       x="0"
       y="0"
       width="100%"
       height="100%"
       transform="translate(166.51776,-0.87253672)" />
    <use
       id="use454"
       inkscape:spray-origin="#path144"
       xlink:href="#path144"
       x="0"
       y="0"
       width="100%"
       height="100%"
       transform="translate(150.45702,7.7191013)" />
    <use
       id="use456"
       inkscape:spray-origin="#path144"
       xlink:href="#path144"
       x="0"
       y="0"
       width="100%"
       height="100%"
       transform="translate(156.55176,4.3710601)" />
    <use
       id="use458"
       inkscape:spray-origin="#path144"
       xlink:href="#path144"
       x="0"
       y="0"
       width="100%"
       height="100%"
       transform="translate(151.29375,9.8975393)" />
    <use
       id="use460"
       inkscape:spray-origin="#path144"
       xlink:href="#path144"
       x="0"
       y="0"
       width="100%"
       height="100%"
       transform="translate(141.9135,15.247322)" />
    <use
       id="use462"
       inkscape:spray-origin="#path144"
       xlink:href="#path144"
       x="0"
       y="0"
       width="100%"
       height="100%"
       transform="translate(144.13103,14.547674)" />
    <use
       id="use464"
       inkscape:spray-origin="#path144"
       xlink:href="#path144"
       x="0"
       y="0"
       width="100%"
       height="100%"
       transform="translate(140.24265,21.535246)" />
    <use
       id="use466"
       inkscape:spray-origin="#path144"
       xlink:href="#path144"
       x="0"
       y="0"
       width="100%"
       height="100%"
       transform="translate(129.83098,18.069428)" />
    <use
       id="use468"
       inkscape:spray-origin="#path144"
       xlink:href="#path144"
       x="0"
       y="0"
       width="100%"
       height="100%"
       transform="translate(133.62069,17.902865)" />
    <use
       id="use470"
       inkscape:spray-origin="#path144"
       xlink:href="#path144"
       x="0"
       y="0"
       width="100%"
       height="100%"
       transform="translate(132.1143,21.675089)" />
    <use
       id="use472"
       inkscape:spray-origin="#path144"
       xlink:href="#path144"
       x="0"
       y="0"
       width="100%"
       height="100%"
       transform="translate(136.1158,23.772144)" />
    <use
       id="use474"
       inkscape:spray-origin="#path144"
       xlink:href="#path144"
       x="0"
       y="0"
       width="100%"
       height="100%"
       transform="translate(129.39472,21.956683)" />
    <use
       id="use476"
       inkscape:spray-origin="#path144"
       xlink:href="#path144"
       x="0"
       y="0"
       width="100%"
       height="100%"
       transform="translate(127.98657,17.879772)" />
    <use
       id="use478"
       inkscape:spray-origin="#path144"
       xlink:href="#path144"
       x="0"
       y="0"
       width="100%"
       height="100%"
       transform="translate(121.5193,25.683502)" />
    <use
       id="use480"
       inkscape:spray-origin="#path144"
       xlink:href="#path144"
       x="0"
       y="0"
       width="100%"
       height="100%"
       transform="translate(120.67962,16.222246)" />
    <use
       id="use482"
       inkscape:spray-origin="#path144"
       xlink:href="#path144"
       x="0"
       y="0"
       width="100%"
       height="100%"
       transform="translate(122.80739,15.899028)" />
    <use
       id="use493"
       inkscape:spray-origin="#path144"
       xlink:href="#path144"
       x="0"
       y="0"
       width="100%"
       height="100%"
       transform="translate(30.413897,77.353049)" />
    <path
       style="fill:#0089ff;fill-opacity:1;stroke:#000000;stroke-width:0.42215px;stroke-linecap:butt;stroke-linejoin:miter;stroke-opacity:1"
       d="m 113.63378,73.926261 c -2.0299,16.104548 19.46572,18.127228 20.02549,24.201968 0.55977,6.074741 -12.64617,25.526141 -1.21864,31.480281 11.42755,5.95416 21.95633,-11.89974 29.20566,-11.56656 7.24933,0.33319 24.73838,16.01306 29.56293,10.88695 4.82459,-5.12612 -4.55385,-25.31058 -1.97538,-31.350491 2.57846,-6.03992 19.21309,-15.72239 19.48952,-24.751788 0.27646,-9.02939 -25.24675,-4.47809 -30.4265,-7.80911 -5.17976,-3.33102 -9.95442,-25.81951 -17.51776,-26.18438 -7.56333,-0.36488 -11.31985,23.56124 -16.8292,26.52418 -5.50936,2.96295 -27.38161,0.60587 -30.31612,8.56895 z"
       id="path4624"
       inkscape:connector-curvature="0"
       inkscape:export-xdpi="96"
       inkscape:export-ydpi="96" />
    <circle
       style="fill:#d40000;fill-opacity:1;stroke:#6b53ff;stroke-width:0.80000001;stroke-miterlimit:4;stroke-dasharray:none;stroke-opacity:1"
       id="path1308"
       cx="113.77084"
       cy="161.30655"
       r="16.630953"
       inkscape:export-xdpi="96"
       inkscape:export-ydpi="96" />
    <path
       style="fill:#ff8d1c;fill-opacity:1;stroke:#000000;stroke-width:0.264061px;stroke-linecap:butt;stroke-linejoin:miter;stroke-opacity:1"
       d="m 37.436615,238.78398 c -1.26973,10.0736 12.176063,11.33881 12.526206,15.13864 0.350144,3.79983 -7.910345,15.96694 -0.762276,19.69133 7.148083,3.72441 13.733973,-7.44343 18.268524,-7.23503 4.534551,0.20842 15.474178,10.01638 18.491998,6.80993 3.017844,-3.20645 -2.848492,-15.8321 -1.235626,-19.61014 1.612861,-3.77805 12.01804,-9.83456 12.19095,-15.48257 0.172929,-5.648 -15.792173,-2.8011 -19.032174,-4.8847 -3.240006,-2.0836 -6.226619,-16.15045 -10.957587,-16.37867 -4.730962,-0.22824 -7.080715,14.73786 -10.526886,16.59121 -3.446176,1.85337 -17.127555,0.37899 -18.963129,5.36 z"
       id="path4624-2"
       inkscape:connector-curvature="0"
       inkscape:export-xdpi="96"
       inkscape:export-ydpi="96"
       inkscape:export-filename="kirbybullet_orange.png" />
    <path
       style="fill:#00ffff;fill-opacity:1;stroke:#000000;stroke-width:0.42215px;stroke-linecap:butt;stroke-linejoin:miter;stroke-opacity:1"
       d="m 109.38156,211.7281 c -2.0299,16.10455 19.46572,18.12723 20.02549,24.20197 0.55977,6.07474 -12.64617,25.52614 -1.21864,31.48028 11.42755,5.95416 21.95633,-11.89974 29.20566,-11.56656 7.24933,0.33319 24.73838,16.01306 29.56293,10.88695 4.82459,-5.12612 -4.55385,-25.31058 -1.97538,-31.35049 2.57846,-6.03992 19.21309,-15.72239 19.48952,-24.75179 0.27646,-9.02939 -25.24675,-4.47809 -30.4265,-7.80911 -5.17976,-3.33102 -9.95442,-25.81951 -17.51776,-26.18438 -7.56333,-0.36488 -11.31985,23.56124 -16.8292,26.52418 -5.50936,2.96295 -27.38161,0.60587 -30.31612,8.56895 z"
       id="path4624-4"
       inkscape:connector-curvature="0"
       inkscape:export-xdpi="96"
       inkscape:export-ydpi="96"
       inkscape:export-filename="kirby_bullet_lightblue.png" />
  </g>
</svg>
